<svg xmlns="http://www.w3.org/2000/svg" xmlns:xlink="http://www.w3.org/1999/xlink" width="350" viewBox="0 0 262.5 74.999997" height="100" preserveAspectRatio="xMidYMid meet"><defs><g></g><clipPath id="2e2c28926d"><path d="M 9 13.246094 L 35 13.246094 L 35 38 L 9 38 Z M 9 13.246094 " clip-rule="nonzero"></path></clipPath><clipPath id="bea23590f1"><path d="M 23 31 L 49.855469 31 L 49.855469 55 L 23 55 Z M 23 31 " clip-rule="nonzero"></path></clipPath></defs><path fill="#ffcc00" d="M 20.074219 47.398438 L 29.933594 38.207031 C 28.648438 35.289062 29.910156 30.921875 33.269531 27.5625 L 39.492188 21.339844 L 37.859375 19.703125 L 27.46875 29.390625 C 28.753906 32.308594 27.488281 36.675781 24.132812 40.035156 C 21.808594 42.359375 18.996094 43.675781 16.519531 43.84375 Z M 20.074219 47.398438 " fill-opacity="1" fill-rule="nonzero"></path><path fill="#39b78b" d="M 33.835938 31.445312 C 34.253906 31.863281 34.933594 31.863281 35.355469 31.445312 L 42.476562 24.320312 L 40.957031 22.804688 L 33.835938 29.925781 C 33.414062 30.347656 33.414062 31.027344 33.835938 31.445312 Z M 33.835938 31.445312 " fill-opacity="1" fill-rule="nonzero"></path><path fill="#39b78b" d="M 39.300781 35.394531 C 38.882812 35.8125 38.882812 36.492188 39.300781 36.914062 C 39.722656 37.332031 40.402344 37.332031 40.820312 36.914062 L 47.933594 29.796875 C 47.878906 29.738281 47.828125 29.675781 47.773438 29.617188 L 46.425781 28.269531 Z M 39.300781 35.394531 " fill-opacity="1" fill-rule="nonzero"></path><g clip-path="url(#2e2c28926d)"><path fill="#ff5900" d="M 14.332031 30.234375 C 17.6875 26.875 22.058594 25.609375 24.972656 26.894531 L 34.660156 16.503906 L 33.828125 15.671875 C 31.398438 13.242188 27.460938 13.242188 25.03125 15.671875 L 11.085938 29.617188 C 8.867188 31.839844 8.683594 35.316406 10.523438 37.753906 C 10.71875 35.300781 12.035156 32.53125 14.332031 30.234375 Z M 14.332031 30.234375 " fill-opacity="1" fill-rule="nonzero"></path></g><path fill="#39b78b" d="M 38.121094 34.214844 L 45.246094 27.089844 L 43.726562 25.570312 L 36.601562 32.695312 C 36.183594 33.113281 36.183594 33.792969 36.601562 34.214844 C 37.023438 34.632812 37.703125 34.632812 38.121094 34.214844 Z M 38.121094 34.214844 " fill-opacity="1" fill-rule="nonzero"></path><g clip-path="url(#bea23590f1)"><path fill="#39b78b" d="M 43.074219 37.363281 C 39.714844 40.722656 35.34375 41.984375 32.429688 40.699219 L 23.234375 50.558594 L 25.03125 52.355469 C 27.460938 54.785156 31.398438 54.785156 33.828125 52.355469 L 47.773438 38.414062 C 49.664062 36.519531 50.074219 33.714844 49.019531 31.417969 Z M 43.074219 37.363281 " fill-opacity="1" fill-rule="nonzero"></path></g><g fill="#ff3131" fill-opacity="1"><g transform="translate(55.117035, 46.224606)"><g><path d="M 14.328125 -10.953125 C 15.503906 -9.671875 16.09375 -8.101562 16.09375 -6.25 C 16.09375 -4.394531 15.503906 -2.828125 14.328125 -1.546875 C 13.160156 -0.273438 11.675781 0.359375 9.875 0.359375 C 8.21875 0.359375 6.851562 -0.234375 5.78125 -1.421875 L 5.734375 -1.421875 L 5.734375 0 L 1.46875 0 L 1.46875 -20.96875 L 5.78125 -20.96875 L 5.78125 -11.3125 C 6.851562 -12.351562 8.21875 -12.875 9.875 -12.875 C 11.675781 -12.875 13.160156 -12.234375 14.328125 -10.953125 Z M 10.703125 -4.125 C 11.242188 -4.675781 11.515625 -5.378906 11.515625 -6.234375 C 11.515625 -7.097656 11.234375 -7.804688 10.671875 -8.359375 C 10.109375 -8.910156 9.410156 -9.1875 8.578125 -9.1875 C 7.765625 -9.1875 7.078125 -8.910156 6.515625 -8.359375 C 5.960938 -7.804688 5.6875 -7.101562 5.6875 -6.25 C 5.6875 -5.394531 5.957031 -4.691406 6.5 -4.140625 C 7.039062 -3.585938 7.734375 -3.3125 8.578125 -3.3125 C 9.460938 -3.3125 10.171875 -3.582031 10.703125 -4.125 Z M 10.703125 -4.125 "></path></g></g></g><g fill="#ff3131" fill-opacity="1"><g transform="translate(71.213872, 46.224606)"><g><path d="M 14.125 -5.65625 L 5.046875 -5.65625 C 5.046875 -4.78125 5.328125 -4.128906 5.890625 -3.703125 C 6.460938 -3.285156 7.082031 -3.078125 7.75 -3.078125 C 8.457031 -3.078125 9.015625 -3.171875 9.421875 -3.359375 C 9.828125 -3.546875 10.289062 -3.914062 10.8125 -4.46875 L 13.921875 -2.90625 C 12.617188 -0.726562 10.457031 0.359375 7.4375 0.359375 C 5.550781 0.359375 3.929688 -0.285156 2.578125 -1.578125 C 1.234375 -2.867188 0.5625 -4.421875 0.5625 -6.234375 C 0.5625 -8.054688 1.234375 -9.617188 2.578125 -10.921875 C 3.929688 -12.222656 5.550781 -12.875 7.4375 -12.875 C 9.425781 -12.875 11.039062 -12.300781 12.28125 -11.15625 C 13.519531 -10.007812 14.140625 -8.375 14.140625 -6.25 C 14.140625 -5.957031 14.132812 -5.757812 14.125 -5.65625 Z M 5.171875 -8.046875 L 9.921875 -8.046875 C 9.828125 -8.703125 9.570312 -9.203125 9.15625 -9.546875 C 8.738281 -9.898438 8.207031 -10.078125 7.5625 -10.078125 C 6.84375 -10.078125 6.269531 -9.890625 5.84375 -9.515625 C 5.425781 -9.140625 5.203125 -8.648438 5.171875 -8.046875 Z M 5.171875 -8.046875 "></path></g></g></g><g fill="#ff3131" fill-opacity="1"><g transform="translate(85.359561, 46.224606)"><g><path d="M 6.90625 -12.875 C 7.613281 -12.875 8.316406 -12.789062 9.015625 -12.625 C 9.722656 -12.46875 10.242188 -12.304688 10.578125 -12.140625 L 11.09375 -11.90625 L 9.6875 -9.078125 C 8.707031 -9.597656 7.78125 -9.859375 6.90625 -9.859375 C 6.414062 -9.859375 6.066406 -9.800781 5.859375 -9.6875 C 5.660156 -9.582031 5.5625 -9.382812 5.5625 -9.09375 C 5.5625 -9.03125 5.566406 -8.96875 5.578125 -8.90625 C 5.597656 -8.84375 5.628906 -8.78125 5.671875 -8.71875 C 5.722656 -8.664062 5.769531 -8.617188 5.8125 -8.578125 C 5.851562 -8.535156 5.921875 -8.488281 6.015625 -8.4375 C 6.117188 -8.382812 6.195312 -8.347656 6.25 -8.328125 C 6.3125 -8.304688 6.40625 -8.269531 6.53125 -8.21875 C 6.664062 -8.164062 6.765625 -8.128906 6.828125 -8.109375 C 6.890625 -8.085938 7 -8.050781 7.15625 -8 C 7.3125 -7.945312 7.429688 -7.914062 7.515625 -7.90625 C 8.015625 -7.757812 8.453125 -7.59375 8.828125 -7.40625 C 9.203125 -7.226562 9.597656 -6.984375 10.015625 -6.671875 C 10.429688 -6.367188 10.75 -5.984375 10.96875 -5.515625 C 11.195312 -5.046875 11.3125 -4.507812 11.3125 -3.90625 C 11.3125 -1.0625 9.335938 0.359375 5.390625 0.359375 C 4.492188 0.359375 3.644531 0.222656 2.84375 -0.046875 C 2.039062 -0.328125 1.457031 -0.601562 1.09375 -0.875 L 0.5625 -1.3125 L 2.3125 -4.265625 C 2.445312 -4.148438 2.617188 -4.015625 2.828125 -3.859375 C 3.035156 -3.710938 3.414062 -3.503906 3.96875 -3.234375 C 4.53125 -2.960938 5.015625 -2.828125 5.421875 -2.828125 C 6.304688 -2.828125 6.75 -3.128906 6.75 -3.734375 C 6.75 -4.003906 6.632812 -4.21875 6.40625 -4.375 C 6.1875 -4.53125 5.800781 -4.703125 5.25 -4.890625 C 4.707031 -5.085938 4.28125 -5.269531 3.96875 -5.4375 C 3.195312 -5.84375 2.582031 -6.300781 2.125 -6.8125 C 1.664062 -7.320312 1.4375 -8.003906 1.4375 -8.859375 C 1.4375 -10.117188 1.925781 -11.101562 2.90625 -11.8125 C 3.894531 -12.519531 5.226562 -12.875 6.90625 -12.875 Z M 6.90625 -12.875 "></path></g></g></g><g fill="#ff3131" fill-opacity="1"><g transform="translate(96.798038, 46.224606)"><g><path d="M 2.1875 -12.515625 L 2.1875 -17.171875 L 6.515625 -17.171875 L 6.515625 -12.515625 L 9.140625 -12.515625 L 9.140625 -9.21875 L 6.515625 -9.21875 L 6.515625 -5.25 C 6.515625 -4.09375 6.835938 -3.515625 7.484375 -3.515625 C 7.648438 -3.515625 7.820312 -3.546875 8 -3.609375 C 8.175781 -3.671875 8.316406 -3.738281 8.421875 -3.8125 L 8.5625 -3.90625 L 9.640625 -0.421875 C 8.710938 0.0976562 7.65625 0.359375 6.46875 0.359375 C 5.65625 0.359375 4.953125 0.21875 4.359375 -0.0625 C 3.773438 -0.34375 3.332031 -0.722656 3.03125 -1.203125 C 2.726562 -1.679688 2.507812 -2.1875 2.375 -2.71875 C 2.25 -3.25 2.1875 -3.816406 2.1875 -4.421875 L 2.1875 -9.21875 L 0.390625 -9.21875 L 0.390625 -12.515625 Z M 2.1875 -12.515625 "></path></g></g></g><g fill="#ffcc00" fill-opacity="1"><g transform="translate(105.872772, 46.224606)"><g><path d="M 2.1875 -12.515625 L 2.1875 -15.171875 C 2.207031 -17.035156 2.648438 -18.53125 3.515625 -19.65625 C 4.378906 -20.78125 5.570312 -21.34375 7.09375 -21.34375 C 7.75 -21.34375 8.375 -21.25 8.96875 -21.0625 C 9.5625 -20.875 9.988281 -20.679688 10.25 -20.484375 L 10.65625 -20.21875 L 9.140625 -17.171875 C 8.753906 -17.398438 8.328125 -17.515625 7.859375 -17.515625 C 7.316406 -17.515625 6.957031 -17.332031 6.78125 -16.96875 C 6.601562 -16.601562 6.515625 -15.960938 6.515625 -15.046875 L 6.515625 -12.515625 L 9.390625 -12.515625 L 9.390625 -9.21875 L 6.515625 -9.21875 L 6.515625 0 L 2.1875 0 L 2.1875 -9.21875 L 0.390625 -9.21875 L 0.390625 -12.515625 Z M 2.1875 -12.515625 "></path></g></g></g><g fill="#ffcc00" fill-opacity="1"><g transform="translate(114.457701, 46.224606)"><g><path d="M 2.640625 -1.484375 C 1.253906 -2.722656 0.5625 -4.304688 0.5625 -6.234375 C 0.5625 -8.171875 1.285156 -9.757812 2.734375 -11 C 4.179688 -12.25 5.96875 -12.875 8.09375 -12.875 C 10.195312 -12.875 11.96875 -12.25 13.40625 -11 C 14.84375 -9.75 15.5625 -8.160156 15.5625 -6.234375 C 15.5625 -4.316406 14.859375 -2.738281 13.453125 -1.5 C 12.046875 -0.257812 10.257812 0.359375 8.09375 0.359375 C 5.851562 0.359375 4.035156 -0.253906 2.640625 -1.484375 Z M 5.984375 -8.359375 C 5.421875 -7.804688 5.140625 -7.097656 5.140625 -6.234375 C 5.140625 -5.378906 5.40625 -4.675781 5.9375 -4.125 C 6.476562 -3.582031 7.191406 -3.3125 8.078125 -3.3125 C 8.921875 -3.3125 9.613281 -3.585938 10.15625 -4.140625 C 10.695312 -4.691406 10.96875 -5.394531 10.96875 -6.25 C 10.96875 -7.101562 10.6875 -7.804688 10.125 -8.359375 C 9.570312 -8.910156 8.890625 -9.1875 8.078125 -9.1875 C 7.242188 -9.1875 6.546875 -8.910156 5.984375 -8.359375 Z M 5.984375 -8.359375 "></path></g></g></g><g fill="#ffcc00" fill-opacity="1"><g transform="translate(130.01797, 46.224606)"><g><path d="M 2.640625 -1.484375 C 1.253906 -2.722656 0.5625 -4.304688 0.5625 -6.234375 C 0.5625 -8.171875 1.285156 -9.757812 2.734375 -11 C 4.179688 -12.25 5.96875 -12.875 8.09375 -12.875 C 10.195312 -12.875 11.96875 -12.25 13.40625 -11 C 14.84375 -9.75 15.5625 -8.160156 15.5625 -6.234375 C 15.5625 -4.316406 14.859375 -2.738281 13.453125 -1.5 C 12.046875 -0.257812 10.257812 0.359375 8.09375 0.359375 C 5.851562 0.359375 4.035156 -0.253906 2.640625 -1.484375 Z M 5.984375 -8.359375 C 5.421875 -7.804688 5.140625 -7.097656 5.140625 -6.234375 C 5.140625 -5.378906 5.40625 -4.675781 5.9375 -4.125 C 6.476562 -3.582031 7.191406 -3.3125 8.078125 -3.3125 C 8.921875 -3.3125 9.613281 -3.585938 10.15625 -4.140625 C 10.695312 -4.691406 10.96875 -5.394531 10.96875 -6.25 C 10.96875 -7.101562 10.6875 -7.804688 10.125 -8.359375 C 9.570312 -8.910156 8.890625 -9.1875 8.078125 -9.1875 C 7.242188 -9.1875 6.546875 -8.910156 5.984375 -8.359375 Z M 5.984375 -8.359375 "></path></g></g></g><g fill="#ffcc00" fill-opacity="1"><g transform="translate(145.578239, 46.224606)"><g><path d="M 2.3125 -1.546875 C 1.144531 -2.828125 0.5625 -4.394531 0.5625 -6.25 C 0.5625 -8.101562 1.144531 -9.671875 2.3125 -10.953125 C 3.488281 -12.234375 4.976562 -12.875 6.78125 -12.875 C 8.4375 -12.875 9.800781 -12.351562 10.875 -11.3125 L 10.875 -20.96875 L 15.203125 -20.96875 L 15.203125 0 L 10.921875 0 L 10.921875 -1.421875 L 10.875 -1.421875 C 9.800781 -0.234375 8.4375 0.359375 6.78125 0.359375 C 4.976562 0.359375 3.488281 -0.273438 2.3125 -1.546875 Z M 5.984375 -8.359375 C 5.421875 -7.804688 5.140625 -7.097656 5.140625 -6.234375 C 5.140625 -5.378906 5.40625 -4.675781 5.9375 -4.125 C 6.476562 -3.582031 7.191406 -3.3125 8.078125 -3.3125 C 8.921875 -3.3125 9.613281 -3.585938 10.15625 -4.140625 C 10.695312 -4.691406 10.96875 -5.394531 10.96875 -6.25 C 10.96875 -7.101562 10.6875 -7.804688 10.125 -8.359375 C 9.570312 -8.910156 8.890625 -9.1875 8.078125 -9.1875 C 7.242188 -9.1875 6.546875 -8.910156 5.984375 -8.359375 Z M 5.984375 -8.359375 "></path></g></g></g><g fill="#39b78b" fill-opacity="1"><g transform="translate(161.681953, 46.224606)"><g><path d="M 9.140625 0 L 6.21875 0 L -0.484375 -12.515625 L 4.484375 -12.515625 L 7.53125 -5.75 L 10.53125 -12.515625 L 13.515625 -12.515625 L 16.515625 -5.75 L 19.5625 -12.515625 L 24.53125 -12.515625 L 17.828125 0 L 14.90625 0 L 12.03125 -6.46875 Z M 9.140625 0 "></path></g></g></g><g fill="#39b78b" fill-opacity="1"><g transform="translate(185.16875, 46.224606)"><g><path d="M 1.46875 0 L 1.46875 -20.96875 L 5.78125 -20.96875 L 5.78125 -11.203125 L 5.828125 -11.203125 C 6.953125 -12.316406 8.148438 -12.875 9.421875 -12.875 C 10.035156 -12.875 10.644531 -12.789062 11.25 -12.625 C 11.863281 -12.46875 12.453125 -12.21875 13.015625 -11.875 C 13.578125 -11.53125 14.03125 -11.046875 14.375 -10.421875 C 14.726562 -9.796875 14.90625 -9.070312 14.90625 -8.25 L 14.90625 0 L 10.578125 0 L 10.578125 -7.078125 C 10.578125 -7.722656 10.367188 -8.289062 9.953125 -8.78125 C 9.546875 -9.269531 9.007812 -9.515625 8.34375 -9.515625 C 7.6875 -9.515625 7.09375 -9.257812 6.5625 -8.75 C 6.039062 -8.25 5.78125 -7.691406 5.78125 -7.078125 L 5.78125 0 Z M 1.46875 0 "></path></g></g></g><g fill="#39b78b" fill-opacity="1"><g transform="translate(200.729019, 46.224606)"><g><path d="M 14.125 -5.65625 L 5.046875 -5.65625 C 5.046875 -4.78125 5.328125 -4.128906 5.890625 -3.703125 C 6.460938 -3.285156 7.082031 -3.078125 7.75 -3.078125 C 8.457031 -3.078125 9.015625 -3.171875 9.421875 -3.359375 C 9.828125 -3.546875 10.289062 -3.914062 10.8125 -4.46875 L 13.921875 -2.90625 C 12.617188 -0.726562 10.457031 0.359375 7.4375 0.359375 C 5.550781 0.359375 3.929688 -0.285156 2.578125 -1.578125 C 1.234375 -2.867188 0.5625 -4.421875 0.5625 -6.234375 C 0.5625 -8.054688 1.234375 -9.617188 2.578125 -10.921875 C 3.929688 -12.222656 5.550781 -12.875 7.4375 -12.875 C 9.425781 -12.875 11.039062 -12.300781 12.28125 -11.15625 C 13.519531 -10.007812 14.140625 -8.375 14.140625 -6.25 C 14.140625 -5.957031 14.132812 -5.757812 14.125 -5.65625 Z M 5.171875 -8.046875 L 9.921875 -8.046875 C 9.828125 -8.703125 9.570312 -9.203125 9.15625 -9.546875 C 8.738281 -9.898438 8.207031 -10.078125 7.5625 -10.078125 C 6.84375 -10.078125 6.269531 -9.890625 5.84375 -9.515625 C 5.425781 -9.140625 5.203125 -8.648438 5.171875 -8.046875 Z M 5.171875 -8.046875 "></path></g></g></g><g fill="#39b78b" fill-opacity="1"><g transform="translate(214.874709, 46.224606)"><g><path d="M 1.46875 0 L 1.46875 -12.515625 L 5.78125 -12.515625 L 5.78125 -10.703125 L 5.828125 -10.703125 C 5.859375 -10.773438 5.910156 -10.859375 5.984375 -10.953125 C 6.054688 -11.046875 6.210938 -11.210938 6.453125 -11.453125 C 6.703125 -11.703125 6.960938 -11.925781 7.234375 -12.125 C 7.515625 -12.320312 7.875 -12.492188 8.3125 -12.640625 C 8.75 -12.796875 9.195312 -12.875 9.65625 -12.875 C 10.125 -12.875 10.585938 -12.804688 11.046875 -12.671875 C 11.503906 -12.546875 11.835938 -12.421875 12.046875 -12.296875 L 12.390625 -12.09375 L 10.578125 -8.4375 C 10.046875 -8.894531 9.300781 -9.125 8.34375 -9.125 C 7.820312 -9.125 7.375 -9.007812 7 -8.78125 C 6.625 -8.550781 6.359375 -8.273438 6.203125 -7.953125 C 6.046875 -7.628906 5.9375 -7.351562 5.875 -7.125 C 5.8125 -6.894531 5.78125 -6.710938 5.78125 -6.578125 L 5.78125 0 Z M 1.46875 0 "></path></g></g></g><g fill="#39b78b" fill-opacity="1"><g transform="translate(226.459521, 46.224606)"><g><path d="M 14.125 -5.65625 L 5.046875 -5.65625 C 5.046875 -4.78125 5.328125 -4.128906 5.890625 -3.703125 C 6.460938 -3.285156 7.082031 -3.078125 7.75 -3.078125 C 8.457031 -3.078125 9.015625 -3.171875 9.421875 -3.359375 C 9.828125 -3.546875 10.289062 -3.914062 10.8125 -4.46875 L 13.921875 -2.90625 C 12.617188 -0.726562 10.457031 0.359375 7.4375 0.359375 C 5.550781 0.359375 3.929688 -0.285156 2.578125 -1.578125 C 1.234375 -2.867188 0.5625 -4.421875 0.5625 -6.234375 C 0.5625 -8.054688 1.234375 -9.617188 2.578125 -10.921875 C 3.929688 -12.222656 5.550781 -12.875 7.4375 -12.875 C 9.425781 -12.875 11.039062 -12.300781 12.28125 -11.15625 C 13.519531 -10.007812 14.140625 -8.375 14.140625 -6.25 C 14.140625 -5.957031 14.132812 -5.757812 14.125 -5.65625 Z M 5.171875 -8.046875 L 9.921875 -8.046875 C 9.828125 -8.703125 9.570312 -9.203125 9.15625 -9.546875 C 8.738281 -9.898438 8.207031 -10.078125 7.5625 -10.078125 C 6.84375 -10.078125 6.269531 -9.890625 5.84375 -9.515625 C 5.425781 -9.140625 5.203125 -8.648438 5.171875 -8.046875 Z M 5.171875 -8.046875 "></path></g></g></g></svg>